<svg version="1.1" viewBox="0.0 0.0 256.0 256.0" fill="none" stroke="none" stroke-linecap="square" stroke-miterlimit="10" xmlns:xlink="http://www.w3.org/1999/xlink" xmlns="http://www.w3.org/2000/svg"  width="250px" height="250px"><clipPath id="p.0"><path d="m0 0l256.0 0l0 256.0l-256.0 0l0 -256.0z" clip-rule="nonzero"/></clipPath><g clip-path="url(#p.0)"><path fill="#ffffff" d="m0 0l256.0 0l0 256.0l-256.0 0z" fill-rule="evenodd"/><defs><linearGradient id="p.1" gradientUnits="userSpaceOnUse" gradientTransform="matrix(16.0 0.0 0.0 16.0 0.0 0.0)" spreadMethod="pad" x1="0.025098425196850394" y1="16.0" x2="16.025098425196852" y2="16.0"><stop offset="0.0" stop-color="#0a988a"/><stop offset="1.0" stop-color="#174f99"/></linearGradient></defs><path fill="url(#p.1)" d="m0.4015748 0l256.0 0l0 256.0l-256.0 0z" fill-rule="evenodd"/><path fill="#000000" fill-opacity="0.0" d="m8.727035 10.490819l238.55118 0l0 73.82677l-238.55118 0z" fill-rule="evenodd"/><path fill="#ffffff" d="m51.90368 70.82072q-3.171875 0 -5.5 -0.984375q-2.328125 -0.984375 -3.828125 -2.6875q-1.5 -1.703125 -2.21875 -4.031254q-0.71875 -2.328125 -0.71875 -5.03125l0 -20.296875l4.53125 0l0 19.78125q0 4.84375 2.140625 7.046879q2.140625 2.1875 5.59375 2.1875q1.734375 0 3.15625 -0.53125q1.421875 -0.546875 2.4375 -1.65625q1.03125 -1.1250038 1.59375 -2.8750038q0.5625 -1.75 0.5625 -4.171875l0 -19.78125l4.515625 0l0 20.296875q0 2.703125 -0.71875 5.03125q-0.71875 2.3281288 -2.234375 4.031254q-1.515625 1.703125 -3.828125 2.6875q-2.3125 0.984375 -5.484375 0.984375zm27.068176 -0.234375q-4.015625 -0.09375 -5.703125 -1.71875q-1.671875 -1.640625 -1.671875 -5.093754l0 -29.109375l4.34375 -0.75l0 29.15625q0 1.0781288 0.171875 1.7812538q0.1875 0.6875 0.609375 1.109375q0.421875 0.421875 1.125 0.640625q0.703125 0.203125 1.734375 0.34375l-0.609375 3.640625zm9.518372 -24.734379l9.1875 0l0 3.640625l-9.1875 0l0 11.203125q0 1.8125 0.265625 3.015625q0.28125 1.1875038 0.84375 1.8593788q0.5625 0.671875 1.40625 0.953125q0.84375 0.28125 1.953125 0.28125q1.96875 0 3.15625 -0.4375q1.1875 -0.453125 1.65625 -0.640625l0.84375 3.59375q-0.65625 0.328125 -2.296875 0.8125q-1.625 0.5 -3.734375 0.5q-2.46875 0 -4.078125 -0.625q-1.609375 -0.640625 -2.59375 -1.890625q-0.96875 -1.265625 -1.375 -3.109375q-0.390625 -1.8437538 -0.390625 -4.265629l0 -21.65625l4.34375 -0.734375l0 7.5zm19.037018 24.265629l-4.34375 0l0 -24.265629l4.34375 0l0 24.265629zm-2.203125 -28.640629q-1.15625 0 -1.984375 -0.765625q-0.8125 -0.78125 -0.8125 -2.09375q0 -1.296875 0.8125 -2.0625q0.828125 -0.78125 1.984375 -0.78125q1.171875 0 1.984375 0.78125q0.8125 0.765625 0.8125 2.0625q0 1.3125 -0.8125 2.09375q-0.8125 0.765625 -1.984375 0.765625zm9.663376 5.078125q1.484375 -0.375 3.9375 -0.796875q2.453125 -0.421875 5.671875 -0.421875q2.328125 0 3.9062424 0.640625q1.59375 0.625 2.671875 1.84375q0.328125 -0.234375 1.03125 -0.65625q0.703125 -0.421875 1.71875 -0.8125q1.03125 -0.40625 2.28125 -0.703125q1.2656403 -0.3125 2.7187653 -0.3125q2.796875 0 4.5625 0.828125q1.78125 0.8125 2.78125 2.3125q1.0 1.484375 1.34375 3.546875q0.359375 2.046875 0.359375 4.46875l0 13.625004l-4.34375 0l0 -12.687504q0 -2.15625 -0.21875 -3.6875q-0.203125 -1.546875 -0.78125 -2.5625q-0.578125 -1.03125 -1.59375 -1.515625q-1.0 -0.5 -2.578125 -0.5q-2.2031403 0 -3.6250153 0.59375q-1.421875 0.578125 -1.921875 1.046875q0.359375 1.203125 0.546875 2.65625q0.1875 1.453125 0.1875 3.03125l0 13.625004l-4.328125 0l0 -12.687504q0 -2.15625 -0.234375 -3.6875q-0.234375 -1.546875 -0.828125 -2.5625q-0.5781174 -1.03125 -1.5781174 -1.515625q-1.0 -0.5 -2.546875 -0.5q-0.65625 0 -1.40625 0.046875q-0.734375 0.046875 -1.421875 0.125q-0.671875 0.0625 -1.234375 0.15625q-0.546875 0.09375 -0.734375 0.140625l0 20.484379l-4.34375 0l0 -23.562504zm48.37406 20.437504q1.546875 0 2.734375 -0.0625q1.1875 -0.078125 1.984375 -0.265625l0 -7.234379q-0.46875 -0.234375 -1.515625 -0.390625q-1.046875 -0.171875 -2.546875 -0.171875q-0.96875 0 -2.078125 0.140625q-1.09375 0.140625 -2.0 0.59375q-0.90625 0.4375 -1.515625 1.21875q-0.609375 0.765625 -0.609375 2.015625q0 2.3281288 1.484375 3.2500038q1.5 0.90625 4.0625 0.90625zm-0.359375 -21.750004q2.609375 0 4.40625 0.6875q1.796875 0.671875 2.890625 1.90625q1.09375 1.234375 1.5625 2.9375q0.46875 1.703125 0.46875 3.765625l0 15.156254q-0.5625 0.09375 -1.578125 0.265625q-1.0 0.15625 -2.265625 0.296875q-1.25 0.140625 -2.71875 0.25q-1.46875 0.125 -2.90625 0.125q-2.0625 0 -3.796875 -0.421875q-1.71875 -0.421875 -2.984375 -1.328125q-1.25 -0.90625 -1.953125 -2.390625q-0.703125 -1.5 -0.703125 -3.6093788q0 -2.0 0.8125 -3.4375q0.828125 -1.453125 2.21875 -2.34375q1.40625 -0.890625 3.265625 -1.3125q1.875 -0.421875 3.921875 -0.421875q0.65625 0 1.359375 0.078125q0.703125 0.0625 1.328125 0.1875q0.625 0.109375 1.09375 0.203125q0.46875 0.09375 0.65625 0.140625l0 -1.203125q0 -1.078125 -0.234375 -2.125q-0.234375 -1.046875 -0.84375 -1.859375q-0.59375 -0.828125 -1.65625 -1.3125q-1.046875 -0.5 -2.71875 -0.5q-2.15625 0 -3.765625 0.3125q-1.609375 0.296875 -2.40625 0.625l-0.5 -3.59375q0.828125 -0.375 2.78125 -0.71875q1.96875 -0.359375 4.265625 -0.359375zm20.573242 0.609375l9.1875 0l0 3.640625l-9.1875 0l0 11.203125q0 1.8125 0.265625 3.015625q0.28125 1.1875038 0.84375 1.8593788q0.5625 0.671875 1.40625 0.953125q0.84375 0.28125 1.953125 0.28125q1.96875 0 3.15625 -0.4375q1.1875 -0.453125 1.65625 -0.640625l0.84375 3.59375q-0.65625 0.328125 -2.296875 0.8125q-1.625 0.5 -3.734375 0.5q-2.46875 0 -4.078125 -0.625q-1.609375 -0.640625 -2.59375 -1.890625q-0.96875 -1.265625 -1.375 -3.109375q-0.390625 -1.8437538 -0.390625 -4.265629l0 -21.65625l4.34375 -0.734375l0 7.5zm12.867249 12.1875q0 -3.21875 0.9375 -5.625q0.9375 -2.40625 2.46875 -3.984375q1.546875 -1.59375 3.546875 -2.390625q2.015625 -0.796875 4.109375 -0.796875q4.890625 0 7.5 3.0625q2.625 3.0625 2.625 9.3125q0 0.28125 0 0.71875q0 0.4375 -0.046875 0.8125l-16.609375 0q0.28125 3.78125 2.1875 5.750004q1.921875 1.953125 5.96875 1.953125q2.296875 0 3.859375 -0.390625q1.5625 -0.40625 2.359375 -0.78125l0.59375 3.640625q-0.78125 0.421875 -2.765625 0.890625q-1.984375 0.46875 -4.5 0.46875q-3.171875 0 -5.484375 -0.953125q-2.3125 -0.96875 -3.8125 -2.640625q-1.484375 -1.6875 -2.21875 -3.9843788q-0.71875 -2.3125 -0.71875 -5.0625zm16.65625 -2.390625q0.046875 -2.9375 -1.46875 -4.828125q-1.515625 -1.890625 -4.171875 -1.890625q-1.5 0 -2.640625 0.59375q-1.140625 0.578125 -1.9375 1.515625q-0.78125 0.921875 -1.234375 2.140625q-0.4375 1.21875 -0.578125 2.46875l12.03125 0z" fill-rule="nonzero"/><path fill="#000000" fill-opacity="0.0" d="m8.724409 84.33049l238.55118 0l0 87.33858l-238.55118 0z" fill-rule="evenodd"/><path fill="#ffffff" d="m40.944473 140.7579q2.0625 -4.75 5.625 -11.0625q3.5625 -6.328125 8.046875 -13.015625q4.484375 -6.703125 9.609375 -13.171875q5.125 -6.484375 10.3125 -11.671875l9.609375 0l0 47.515625l8.859375 0l0 8.21875l-8.859375 0l0 19.109375l-9.71875 0l0 -19.109375l-33.484375 0l0 -6.8125zm33.484375 -37.046875q-3.234375 3.453125 -6.53125 7.734375q-3.296875 4.265625 -6.4375 8.90625q-3.125 4.640625 -5.875 9.5q-2.75 4.859375 -4.90625 9.5l23.75 0l0 -35.640625zm33.162018 3.5625q6.15625 -2.375 11.984375 -6.09375q5.828125 -3.734375 10.6875 -9.34375l7.140625 0l0 74.84375l-10.046875 0l0 -60.90625q-1.296875 1.1875 -3.1875 2.484375q-1.890625 1.296875 -4.109375 2.484375q-2.21875 1.1875 -4.65625 2.265625q-2.421875 1.078125 -4.6875 1.828125l-3.125 -7.5625zm56.271393 21.9375q0 -18.796875 6.640625 -28.953125q6.640625 -10.15625 18.40625 -10.15625q11.78125 0 18.421875 10.15625q6.640625 10.15625 6.640625 28.953125q0 18.78125 -6.640625 28.9375q-6.640625 10.15625 -18.421875 10.15625q-11.765625 0 -18.40625 -10.15625q-6.640625 -10.15625 -6.640625 -28.9375zm39.515625 0q0 -6.15625 -0.703125 -11.65625q-0.6875 -5.515625 -2.375 -9.625q-1.671875 -4.109375 -4.484375 -6.53125q-2.796875 -2.4375 -6.90625 -2.4375q-4.09375 0 -6.90625 2.4375q-2.8125 2.421875 -4.484375 6.53125q-1.671875 4.109375 -2.375 9.625q-0.703125 5.5 -0.703125 11.65625q0 6.15625 0.703125 11.671875q0.703125 5.5 2.375 9.609375q1.671875 4.09375 4.484375 6.53125q2.8125 2.421875 6.90625 2.421875q4.109375 0 6.90625 -2.421875q2.8125 -2.4375 4.484375 -6.53125q1.6875 -4.109375 2.375 -9.609375q0.703125 -5.515625 0.703125 -11.671875z" fill-rule="nonzero"/><path fill="#000000" fill-opacity="0.0" d="m8.724409 171.6693l238.55118 0l0 76.976364l-238.55118 0z" fill-rule="evenodd"/><path fill="#ffffff" d="m28.590597 211.58366q2.34375 0 3.484377 -0.625q1.140625 -0.625 1.140625 -1.984375q0 -1.40625 -1.125 -2.234375q-1.1093769 -0.828125 -3.671877 -1.859375q-1.234375 -0.484375 -2.375 -1.0q-1.140625 -0.53125 -1.96875 -1.234375q-0.828125 -0.703125 -1.328125 -1.6875q-0.484375 -0.984375 -0.484375 -2.4375q0 -2.859375 2.109375 -4.53125q2.109375 -1.671875 5.75 -1.671875q0.90625 0 1.8125 0.109375q0.9062519 0.09375 1.6875019 0.25q0.796875 0.140625 1.390625 0.3125q0.59375 0.15625 0.921875 0.28125l-0.703125 3.3125q-0.609375 -0.34375 -1.9375 -0.6875q-1.3125019 -0.34375 -3.171877 -0.34375q-1.625 0 -2.828125 0.640625q-1.1875 0.640625 -1.1875 2.0q0 0.703125 0.265625 1.25q0.265625 0.53125 0.828125 0.96875q0.5625 0.421875 1.390625 0.796875q0.828125 0.375 1.984375 0.78125q1.5156269 0.578125 2.718752 1.140625q1.203125 0.5625 2.046875 1.3125q0.84375 0.734375 1.296875 1.796875q0.46875 1.046875 0.46875 2.578125q0 2.96875 -2.21875 4.5q-2.203125 1.53125 -6.296877 1.53125q-2.859375 0 -4.46875 -0.484375q-1.609375 -0.46875 -2.1875 -0.71875l0.703125 -3.3125q0.65625 0.25 2.09375 0.75q1.453125 0.5 3.859375 0.5zm17.026125 -18.71875l8.140625 0l0 3.21875l-8.140625 0l0 9.921875q0 1.609375 0.234375 2.671875q0.25 1.046875 0.75 1.640625q0.5 0.59375 1.234375 0.84375q0.75 0.25 1.75 0.25q1.734375 0 2.78125 -0.390625q1.0625 -0.390625 1.46875 -0.5625l0.75 3.1875q-0.578125 0.296875 -2.03125 0.71875q-1.4375 0.4375 -3.3125 0.4375q-2.1875 0 -3.609375 -0.546875q-1.421875 -0.5625 -2.296875 -1.671875q-0.859375 -1.125 -1.21875 -2.75q-0.34375 -1.640625 -0.34375 -3.796875l0 -19.171875l3.84375 -0.65625l0 6.65625zm20.285812 18.71875q1.359375 0 2.40625 -0.0625q1.0625 -0.0625 1.765625 -0.234375l0 -6.40625q-0.40625 -0.203125 -1.34375 -0.34375q-0.921875 -0.140625 -2.25 -0.140625q-0.859375 0 -1.84375 0.125q-0.96875 0.109375 -1.78125 0.515625q-0.796875 0.390625 -1.34375 1.078125q-0.53125 0.671875 -0.53125 1.78125q0 2.078125 1.328125 2.890625q1.328125 0.796875 3.59375 0.796875zm-0.328125 -19.265625q2.3125 0 3.90625 0.609375q1.59375 0.59375 2.5625 1.6875q0.96875 1.09375 1.375 2.609375q0.421875 1.5 0.421875 3.328125l0 13.421875q-0.5 0.078125 -1.390625 0.234375q-0.890625 0.140625 -2.0 0.265625q-1.109375 0.125 -2.421875 0.21875q-1.296875 0.109375 -2.578125 0.109375q-1.8125 0 -3.34375 -0.375q-1.53125 -0.375 -2.65625 -1.171875q-1.109375 -0.8125 -1.734375 -2.125q-0.609375 -1.328125 -0.609375 -3.1875q0 -1.78125 0.71875 -3.0625q0.71875 -1.28125 1.953125 -2.0625q1.25 -0.78125 2.90625 -1.15625q1.65625 -0.375 3.46875 -0.375q0.578125 0 1.1875 0.0625q0.625 0.0625 1.1875 0.171875q0.5625 0.09375 0.96875 0.1875q0.421875 0.078125 0.578125 0.125l0 -1.078125q0 -0.953125 -0.203125 -1.875q-0.203125 -0.9375 -0.75 -1.65625q-0.53125 -0.734375 -1.46875 -1.15625q-0.921875 -0.4375 -2.40625 -0.4375q-1.90625 0 -3.328125 0.265625q-1.421875 0.265625 -2.125 0.5625l-0.453125 -3.1875q0.734375 -0.328125 2.46875 -0.640625q1.734375 -0.3125 3.765625 -0.3125zm18.229568 0.546875l8.140625 0l0 3.21875l-8.140625 0l0 9.921875q0 1.609375 0.234375 2.671875q0.25 1.046875 0.75 1.640625q0.5 0.59375 1.234375 0.84375q0.75 0.25 1.75 0.25q1.734375 0 2.78125 -0.390625q1.0625 -0.390625 1.46875 -0.5625l0.75 3.1875q-0.578125 0.296875 -2.03125 0.71875q-1.4375 0.4375 -3.3125 0.4375q-2.1875 0 -3.609375 -0.546875q-1.421875 -0.5625 -2.296875 -1.671875q-0.859375 -1.125 -1.21875 -2.75q-0.34375 -1.640625 -0.34375 -3.796875l0 -19.171875l3.84375 -0.65625l0 6.65625zm30.129562 20.859375q-1.328125 0.328125 -3.5 0.703125q-2.171875 0.375 -5.015625 0.375q-2.484375 0 -4.1875 -0.71875q-1.6875 -0.71875 -2.71875 -2.046875q-1.03125 -1.328125 -1.484375 -3.125q-0.453125 -1.796875 -0.453125 -3.984375l0 -12.0625l3.84375 0l0 11.234375q0 3.921875 1.234375 5.625q1.234375 1.6875 4.171875 1.6875q0.625 0 1.28125 -0.03125q0.671875 -0.046875 1.25 -0.109375q0.578125 -0.0625 1.046875 -0.125q0.46875 -0.0625 0.6875 -0.140625l0 -18.140625l3.84375 0l0 20.859375zm11.613007 -2.140625q2.34375 0 3.4843674 -0.625q1.140625 -0.625 1.140625 -1.984375q0 -1.40625 -1.125 -2.234375q-1.1093674 -0.828125 -3.6718674 -1.859375q-1.234375 -0.484375 -2.375 -1.0q-1.140625 -0.53125 -1.96875 -1.234375q-0.828125 -0.703125 -1.328125 -1.6875q-0.484375 -0.984375 -0.484375 -2.4375q0 -2.859375 2.109375 -4.53125q2.109375 -1.671875 5.75 -1.671875q0.90625 0 1.8124924 0.109375q0.90625 0.09375 1.6875 0.25q0.796875 0.140625 1.390625 0.3125q0.59375 0.15625 0.921875 0.28125l-0.703125 3.3125q-0.609375 -0.34375 -1.9375 -0.6875q-1.3125 -0.34375 -3.1718674 -0.34375q-1.625 0 -2.828125 0.640625q-1.1875 0.640625 -1.1875 2.0q0 0.703125 0.265625 1.25q0.265625 0.53125 0.828125 0.96875q0.5625 0.421875 1.390625 0.796875q0.828125 0.375 1.984375 0.78125q1.5156174 0.578125 2.7187424 1.140625q1.203125 0.5625 2.046875 1.3125q0.84375 0.734375 1.296875 1.796875q0.46875 1.046875 0.46875 2.578125q0 2.96875 -2.21875 4.5q-2.203125 1.53125 -6.2968674 1.53125q-2.859375 0 -4.46875 -0.484375q-1.609375 -0.46875 -2.1875 -0.71875l0.703125 -3.3125q0.65625 0.25 2.09375 0.75q1.453125 0.5 3.859375 0.5zm32.30732 3.265625q-2.59375 0 -4.5625 -0.828125q-1.96875 -0.828125 -3.3125 -2.3125q-1.328125 -1.5 -2.0 -3.53125q-0.65625 -2.046875 -0.65625 -4.53125q0 -2.484375 0.71875 -4.546875q0.71875 -2.0625 2.046875 -3.5625q1.328125 -1.515625 3.25 -2.359375q1.921875 -0.859375 4.28125 -0.859375q1.4375 0 2.875 0.25q1.453125 0.25 2.78125 0.78125l-0.875 3.265625q-0.859375 -0.40625 -2.0 -0.65625q-1.140625 -0.25 -2.421875 -0.25q-3.21875 0 -4.9375 2.03125q-1.71875 2.015625 -1.71875 5.90625q0 1.734375 0.390625 3.1875q0.40625 1.4375 1.25 2.46875q0.84375 1.03125 2.15625 1.59375q1.328125 0.5625 3.234375 0.5625q1.53125 0 2.765625 -0.28125q1.25 -0.296875 1.953125 -0.625l0.53125 3.21875q-0.328125 0.203125 -0.953125 0.390625q-0.609375 0.1875 -1.40625 0.328125q-0.78125 0.15625 -1.671875 0.25q-0.890625 0.109375 -1.71875 0.109375zm28.320892 -11.25q0 2.5625 -0.75 4.640625q-0.75 2.0625 -2.09375 3.546875q-1.328125 1.484375 -3.203125 2.296875q-1.859375 0.796875 -4.046875 0.796875q-2.1875 0 -4.046875 -0.796875q-1.859375 -0.8125 -3.203125 -2.296875q-1.34375 -1.484375 -2.09375 -3.546875q-0.734375 -2.078125 -0.734375 -4.640625q0 -2.515625 0.734375 -4.59375q0.75 -2.09375 2.09375 -3.578125q1.34375 -1.5 3.203125 -2.296875q1.859375 -0.8125 4.046875 -0.8125q2.1875 0 4.046875 0.8125q1.875 0.796875 3.203125 2.296875q1.34375 1.484375 2.09375 3.578125q0.75 2.078125 0.75 4.59375zm-4.015625 0q0 -3.625 -1.640625 -5.75q-1.625 -2.140625 -4.4375 -2.140625q-2.8125 0 -4.453125 2.140625q-1.625 2.125 -1.625 5.75q0 3.640625 1.625 5.765625q1.640625 2.125 4.453125 2.125q2.8125 0 4.4375 -2.125q1.640625 -2.125 1.640625 -5.765625zm23.305511 -6.1875q-0.703125 -0.578125 -2.03125 -1.109375q-1.3125 -0.546875 -2.875 -0.546875q-1.65625 0 -2.84375 0.59375q-1.171875 0.59375 -1.921875 1.65625q-0.734375 1.046875 -1.078125 2.5q-0.328125 1.4375 -0.328125 3.09375q0 3.765625 1.859375 5.8125q1.875 2.046875 4.96875 2.046875q1.5625 0 2.609375 -0.140625q1.0625 -0.15625 1.640625 -0.3125l0 -13.59375zm0 -14.46875l3.84375 -0.671875l0 31.453125q-1.3125 0.375 -3.390625 0.75q-2.0625 0.375 -4.75 0.375q-2.46875 0 -4.453125 -0.78125q-1.984375 -0.796875 -3.390625 -2.234375q-1.40625 -1.453125 -2.171875 -3.53125q-0.765625 -2.09375 -0.765625 -4.703125q0 -2.46875 0.640625 -4.53125q0.640625 -2.078125 1.875 -3.5625q1.25 -1.484375 3.046875 -2.3125q1.796875 -0.828125 4.109375 -0.828125q1.859375 0 3.28125 0.5q1.421875 0.484375 2.125 0.9375l0 -10.859375zm9.26416 20.703125q0 -2.859375 0.828125 -4.984375q0.828125 -2.125 2.1875 -3.53125q1.359375 -1.40625 3.140625 -2.109375q1.78125 -0.703125 3.640625 -0.703125q4.328125 0 6.640625 2.71875q2.328125 2.703125 2.328125 8.234375q0 0.25 0 0.640625q0 0.390625 -0.046875 0.71875l-14.71875 0q0.25 3.359375 1.9375 5.09375q1.703125 1.734375 5.296875 1.734375q2.03125 0 3.40625 -0.34375q1.390625 -0.359375 2.09375 -0.6875l0.546875 3.21875q-0.703125 0.375 -2.46875 0.78125q-1.75 0.421875 -3.984375 0.421875q-2.8125 0 -4.859375 -0.84375q-2.046875 -0.859375 -3.375 -2.34375q-1.3125 -1.484375 -1.953125 -3.53125q-0.640625 -2.046875 -0.640625 -4.484375zm14.75 -2.109375q0.046875 -2.609375 -1.296875 -4.28125q-1.34375 -1.671875 -3.703125 -1.671875q-1.328125 0 -2.34375 0.515625q-1.0 0.515625 -1.703125 1.34375q-0.703125 0.828125 -1.09375 1.90625q-0.390625 1.078125 -0.515625 2.1875l10.65625 0z" fill-rule="nonzero"/></g></svg>